<?xml version="1.0" encoding="UTF-8" standalone="no"?>
<!-- Created with Inkscape (http://www.inkscape.org/) -->

<svg
   version="1.1"
   id="svg1"
   width="568"
   height="569.33331"
   viewBox="0 0 568 569.33331"
   sodipodi:docname="LOGO FIXIMO.eps"
   xmlns:inkscape="http://www.inkscape.org/namespaces/inkscape"
   xmlns:sodipodi="http://sodipodi.sourceforge.net/DTD/sodipodi-0.dtd"
   xmlns="http://www.w3.org/2000/svg"
   xmlns:svg="http://www.w3.org/2000/svg">
  <defs
     id="defs1" />
  <sodipodi:namedview
     id="namedview1"
     pagecolor="#ffffff"
     bordercolor="#000000"
     borderopacity="0.25"
     inkscape:showpageshadow="2"
     inkscape:pageopacity="0.0"
     inkscape:pagecheckerboard="0"
     inkscape:deskcolor="#d1d1d1">
    <inkscape:page
       x="0"
       y="0"
       inkscape:label="1"
       id="page1"
       width="568"
       height="569.33331"
       margin="0"
       bleed="0" />
  </sodipodi:namedview>
  <g
     id="g1"
     inkscape:groupmode="layer"
     inkscape:label="1">
    <path
       id="path1"
       d="M 89.9648,4261.83 H 4171.86 c 46.77,0 85.04,-38.27 85.04,-85.04 V 94.8984 c 0,-46.7695 -38.27,-85.03902 -85.04,-85.03902 H 89.9648 C 43.1953,9.85938 4.92969,48.1289 4.92969,94.8984 V 4176.79 c 0,46.77 38.26561,85.04 85.03511,85.04"
       style="fill:#2e782e;fill-opacity:1;fill-rule:evenodd;stroke:none"
       transform="matrix(0.13333333,0,0,-0.13333333,0,569.33333)" />
    <path
       id="path2"
       d="m 301.602,1086.09 c 0,93.71 26.855,166.7 80.285,218.83 53.566,52.27 128.093,78.33 223.586,78.33 97.957,0 173.441,-25.66 226.461,-76.99 52.882,-51.2 79.461,-123.12 79.461,-215.49 0,-67.1 -11.645,-122.172 -34.797,-165.082 -23.153,-42.911 -56.582,-76.329 -100.285,-100.254 -43.84,-23.93 -98.231,-35.825 -163.579,-35.825 -66.308,0 -121.246,10.293 -164.812,30.875 -43.43,20.719 -78.641,53.34 -105.766,97.985 -26.992,44.648 -40.554,100.521 -40.554,167.621 z m 181.941,-0.79 c 0,-58.02 10.957,-99.593 33.016,-124.991 22.058,-25.262 52.199,-37.961 90.144,-37.961 39.047,0 69.324,12.429 90.695,37.156 21.375,24.867 32.196,69.376 32.196,133.546 0,54.13 -11.235,93.57 -33.563,118.57 -22.332,24.86 -52.613,37.29 -90.972,37.29 -36.579,0 -66.036,-12.57 -88.227,-37.96 -22.195,-25.27 -33.289,-67.24 -33.289,-125.65"
       style="fill:#ffffff;fill-opacity:1;fill-rule:nonzero;stroke:none"
       transform="matrix(0.13333333,0,0,-0.13333333,0,569.33333)" />
    <path
       id="path3"
       d="m 977.566,989.316 173.034,10.559 c 3.7,-27.402 11.37,-48.254 22.88,-62.691 18.63,-23.258 45.48,-34.758 80.28,-34.758 25.9,0 45.9,5.883 60.01,17.781 13.97,11.895 20.96,25.664 20.96,41.305 0,14.836 -6.58,28.207 -20,39.968 -13.43,11.77 -44.39,22.86 -93.16,33.29 -79.74,17.51 -136.6,40.63 -170.57,69.64 -34.25,29.01 -51.375,65.9 -51.375,110.81 0,29.55 8.765,57.49 26.305,83.69 17.53,26.2 43.84,46.78 79.05,61.89 35.2,14.97 83.43,22.45 144.67,22.45 75.21,0 132.62,-13.63 172.08,-40.9 39.45,-27.27 62.88,-70.71 70.41,-130.2 l -171.39,-9.76 c -4.52,25.8 -14.11,44.65 -28.77,56.41 -14.52,11.63 -34.66,17.51 -60.28,17.51 -21.23,0 -37.13,-4.27 -47.81,-13.1 -10.69,-8.68 -16.03,-19.38 -16.03,-31.94 0,-9.09 4.39,-17.25 13.15,-24.6 8.63,-7.62 28.91,-14.57 61.11,-21.12 79.46,-16.71 136.31,-33.69 170.7,-50.8 34.38,-17.11 59.46,-38.23 75.08,-63.62 15.62,-25.27 23.56,-53.61 23.56,-85.021 0,-36.761 -10.55,-70.714 -31.37,-101.726 -20.82,-31.149 -50.01,-54.672 -87.55,-70.715 -37.4,-16.039 -84.66,-24.059 -141.65,-24.059 -100.01,0 -169.34,18.715 -207.84,56.411 -38.63,37.558 -60.413,85.281 -65.484,143.296"
       style="fill:#ffffff;fill-opacity:1;fill-rule:nonzero;stroke:none"
       transform="matrix(0.13333333,0,0,-0.13333333,0,569.33333)" />
    <path
       id="path4"
       d="m 1561.6,1373.5 h 552.66 v -141.83 h -185.5 V 799.363 h -181.8 V 1231.67 H 1561.6 v 141.83"
       style="fill:#ffffff;fill-opacity:1;fill-rule:nonzero;stroke:none"
       transform="matrix(0.13333333,0,0,-0.13333333,0,569.33333)" />
    <path
       id="path5"
       d="m 2196.88,1373.5 h 340.45 c 56.72,0 100.28,-13.77 130.56,-41.18 30.41,-27.4 45.62,-61.35 45.62,-101.72 0,-33.96 -10.82,-63.1 -32.47,-87.42 -14.52,-16.18 -35.62,-29.01 -63.43,-38.37 42.2,-9.89 73.3,-27 93.3,-51.06 19.86,-24.2 29.86,-54.543 29.86,-91.035 0,-29.809 -7.12,-56.543 -21.23,-80.336 -14.25,-23.797 -33.57,-42.512 -58.23,-56.414 -15.2,-8.555 -38.22,-14.836 -69.04,-18.715 -40.97,-5.211 -68.09,-7.887 -81.52,-7.887 h -313.87 z m 183.44,-225.24 h 79.05 c 28.36,0 48.09,4.81 59.33,14.3 11.09,9.62 16.57,23.39 16.57,41.3 0,16.71 -5.48,29.81 -16.57,39.17 -11.24,9.49 -30.56,14.17 -58.09,14.17 h -80.29 z m 0,-225.514 h 92.75 c 31.38,0 53.43,5.348 66.18,16.176 12.88,10.828 19.31,25.398 19.31,43.711 0,16.976 -6.3,30.617 -19.04,40.907 -12.74,10.29 -34.93,15.5 -66.86,15.5 h -92.34 V 922.746"
       style="fill:#ffffff;fill-opacity:1;fill-rule:nonzero;stroke:none"
       transform="matrix(0.13333333,0,0,-0.13333333,0,569.33333)" />
    <path
       id="path6"
       d="m 3183.83,894.141 h -207.14 l -28.5,-94.778 h -185.77 l 221.12,574.137 h 198.24 l 221.26,-574.137 h -190.3 z m -38.08,124.179 -65.08,206.4 -64.66,-206.4 z"
       style="fill:#ffffff;fill-opacity:1;fill-rule:nonzero;stroke:none"
       transform="matrix(0.13333333,0,0,-0.13333333,0,569.33333)" />
    <path
       id="path7"
       d="m 3815.96,1373.5 h 181.52 v -342.34 c 0,-33.957 -5.47,-65.906 -16.3,-96.113 -10.82,-30.082 -27.81,-56.547 -50.97,-79.137 -23.15,-22.594 -47.39,-38.367 -72.88,-47.586 -35.34,-12.699 -77.68,-19.117 -127.27,-19.117 -28.64,0 -59.87,1.871 -93.71,5.879 -33.84,3.879 -62.06,11.633 -84.81,23.258 -22.74,11.633 -43.56,28.211 -62.47,49.597 -18.9,21.387 -31.78,43.442 -38.77,66.168 -11.23,36.493 -16.85,68.841 -16.85,97.051 v 342.34 h 181.53 V 1023 c 0,-31.414 8.9,-55.875 26.58,-73.387 17.81,-17.644 42.46,-26.465 74.11,-26.465 31.24,0 55.9,8.688 73.71,26.067 17.67,17.246 26.58,41.973 26.58,73.785 v 350.5"
       style="fill:#ffffff;fill-opacity:1;fill-rule:nonzero;stroke:none"
       transform="matrix(0.13333333,0,0,-0.13333333,0,569.33333)" />
    <path
       id="path8"
       d="M 175.004,4075.04 H 4086.82 V 2260.87 H 175.004 v 1814.17"
       style="fill:#ffffff;fill-opacity:1;fill-rule:evenodd;stroke:none"
       transform="matrix(0.13333333,0,0,-0.13333333,0,569.33333)" />
    <path
       id="path9"
       d="m 3971.68,3167.95 c -0.19,47.69 -7.2,93.03 -21.22,135.61 -14.01,42.59 -33.91,81.45 -59.67,116.77 -25.76,35.33 -56.26,65.75 -91.49,91.65 -35.24,25.71 -74.07,45.54 -116.88,59.66 -42.62,14.14 -87.9,21.2 -135.82,21.4 -47.93,-0.2 -93.2,-7.26 -135.82,-21.4 -42.63,-14.12 -81.65,-33.95 -116.89,-59.66 -35.23,-25.9 -65.73,-56.32 -91.49,-91.65 -25.76,-35.32 -45.65,-74.18 -59.67,-116.77 -14.02,-42.58 -21.03,-87.92 -21.22,-135.61 0.19,-47.69 7.2,-93.02 21.22,-135.61 14.02,-42.59 33.91,-81.45 59.67,-116.77 25.76,-35.32 56.26,-65.75 91.49,-91.65 35.24,-25.71 74.26,-45.53 116.89,-59.66 42.62,-14.13 87.89,-21.19 135.82,-21.39 47.92,0.2 93.2,7.26 135.82,21.39 42.81,14.13 81.64,33.95 116.88,59.66 35.23,25.9 65.73,56.33 91.49,91.65 25.76,35.32 45.66,74.18 59.67,116.77 14.02,42.59 21.03,87.92 21.22,135.61"
       style="fill:#2e782e;fill-opacity:1;fill-rule:nonzero;stroke:none"
       transform="matrix(0.13333333,0,0,-0.13333333,0,569.33333)" />
    <path
       id="path10"
       d="m 3785.63,3167.95 c -0.2,-34.34 -6.27,-65.94 -18.21,-94.98 -11.93,-29.05 -28.71,-54.17 -50.35,-75.76 -21.64,-21.58 -46.71,-38.26 -75.84,-50.24 -28.91,-11.77 -60.46,-17.86 -94.63,-18.05 -34.18,0.19 -65.72,6.28 -94.65,18.05 -28.91,11.98 -54.19,28.66 -75.83,50.24 -21.64,21.59 -38.42,46.71 -50.35,75.76 -11.93,29.04 -18,60.64 -18.21,94.98 0.21,34.35 6.28,65.94 18.21,94.99 11.93,29.05 28.71,54.17 50.35,75.76 21.64,21.58 46.92,38.26 75.83,50.24 28.93,11.77 60.47,17.85 94.65,18.05 34.17,-0.2 65.72,-6.28 94.63,-18.05 29.13,-11.98 54.2,-28.66 75.84,-50.24 21.64,-21.59 38.42,-46.71 50.35,-75.76 11.94,-29.05 18.01,-60.64 18.21,-94.99"
       style="fill:#ffffff;fill-opacity:1;fill-rule:nonzero;stroke:none"
       transform="matrix(0.13333333,0,0,-0.13333333,0,569.33333)" />
    <path
       id="path11"
       d="m 2659.54,2957.35 -245.58,272.57 -4.32,-487.04 h -171.68 v 850.16 h 44.53 l 379.22,-425.08 379.22,425.08 h 44.53 v -850.16 h -171.67 l -4.33,487.04 -245.58,-272.57 -2.17,2.39 -2.17,-2.39"
       style="fill:#2e782e;fill-opacity:1;fill-rule:nonzero;stroke:none"
       transform="matrix(0.13333333,0,0,-0.13333333,0,569.33333)" />
    <path
       id="path12"
       d="m 1350.38,2742.88 196.34,284.19 221.93,-284.19 h 207.74 l -326.31,438.44 305.03,411.72 h -199.64 l -204.7,-256.27 -180.13,256.27 H 1162.9 l 284.51,-411.72 -296.67,-438.44 h 199.64"
       style="fill:#2e782e;fill-opacity:1;fill-rule:nonzero;stroke:none"
       transform="matrix(0.13333333,0,0,-0.13333333,0,569.33333)" />
    <path
       id="path13"
       d="m 933.852,2742.87 h 174.298 v 850.17 H 933.852 v -850.17"
       style="fill:#2e782e;fill-opacity:1;fill-rule:nonzero;stroke:none"
       transform="matrix(0.13333333,0,0,-0.13333333,0,569.33333)" />
    <path
       id="path14"
       d="m 1996.67,2742.87 h 174.3 v 850.17 h -174.3 v -850.17"
       style="fill:#2e782e;fill-opacity:1;fill-rule:nonzero;stroke:none"
       transform="matrix(0.13333333,0,0,-0.13333333,0,569.33333)" />
    <path
       id="path15"
       d="M 290.145,2742.88 H 475.66 v 335.21 h 276.117 v 174.88 H 475.66 v 159.1 h 414.172 v 180.97 H 290.145 v -850.16"
       style="fill:#2e782e;fill-opacity:1;fill-rule:nonzero;stroke:none"
       transform="matrix(0.13333333,0,0,-0.13333333,0,569.33333)" />
  </g>
</svg>
